<?xml version="1.0" encoding="UTF-8" standalone="no"?>
<svg
   xmlns:dc="http://purl.org/dc/elements/1.1/"
   xmlns:cc="http://creativecommons.org/ns#"
   xmlns:rdf="http://www.w3.org/1999/02/22-rdf-syntax-ns#"
   xmlns:svg="http://www.w3.org/2000/svg"
   xmlns="http://www.w3.org/2000/svg"
   version="1.1"
   id="svg2"
   viewBox="0 0 914.69629 271.29626"
   height="271.29626"
   width="914.69629">
  <defs
     id="defs4">
    <clipPath
       clipPathUnits="userSpaceOnUse"
       id="clipPath4150">
      <path
         d="m 0,0 737.008,0 0,221.102 L 0,221.102 0,0 Z"
         id="path4152" />
    </clipPath>
  </defs>
  <metadata
     id="metadata7">
    <rdf:RDF>
      <cc:Work
         rdf:about="">
        <dc:format>image/svg+xml</dc:format>
        <dc:type
           rdf:resource="http://purl.org/dc/dcmitype/StillImage" />
        <dc:title></dc:title>
      </cc:Work>
    </rdf:RDF>
  </metadata>
  <g
     transform="translate(71.633836,-328.14263)"
     id="layer1">
    <g
       id="g4144"
       transform="matrix(1.25,0,0,-1.25,-74.295461,602.05763)">
      <g
         id="g4146">
        <g
           id="g4148"
           clip-path="url(#clipPath4150)">
          <g
             id="g4154"
             transform="translate(2.1293,2.095)">
            <path
               d="m 0,0 25.805,0 76.032,217.037 -25.805,0 L 0,0 Z m 199.139,154.99 -11.082,19.607 -32.962,-19.607 0.284,36.657 -21.596,0 0.284,-36.373 -32.679,19.323 -11.366,-19.607 32.678,-17.902 -32.678,-17.902 11.366,-19.323 32.679,19.039 -0.284,-36.373 21.596,0 -0.284,36.657 32.962,-19.323 11.082,19.323 -32.394,17.902 32.394,17.902 z m 94.86,-75.732 c 12.132,0 23,2.685 32.601,8.064 9.598,5.374 17.125,12.787 22.579,22.233 5.451,9.447 8.18,20.16 8.18,32.141 0,11.981 -2.729,22.694 -8.18,32.141 -5.454,9.446 -12.981,16.819 -22.579,22.118 -9.601,5.299 -20.469,7.949 -32.601,7.949 -12.136,0 -23.04,-2.65 -32.717,-7.949 -9.677,-5.299 -17.244,-12.672 -22.695,-22.118 -5.454,-9.447 -8.179,-20.16 -8.179,-32.141 0,-11.981 2.725,-22.694 8.179,-32.141 5.451,-9.446 13.018,-16.859 22.695,-22.233 9.677,-5.379 20.581,-8.064 32.717,-8.064 m 0,19.353 c -7.834,0 -14.861,1.804 -21.082,5.415 -6.221,3.607 -11.138,8.676 -14.746,15.206 -3.61,6.527 -5.414,14.015 -5.414,22.464 0,8.446 1.804,15.934 5.414,22.464 3.608,6.527 8.525,11.556 14.746,15.091 6.221,3.532 13.248,5.299 21.082,5.299 7.833,0 14.86,-1.767 21.081,-5.299 6.221,-3.535 11.095,-8.564 14.631,-15.091 3.531,-6.53 5.299,-14.018 5.299,-22.464 0,-8.449 -1.768,-15.937 -5.299,-22.464 -3.536,-6.53 -8.41,-11.599 -14.631,-15.206 -6.221,-3.611 -13.248,-5.415 -21.081,-5.415 m 149.067,0 c -10.292,0 -19.087,2.304 -26.381,6.912 -7.297,4.608 -12.481,11.135 -15.552,19.584 L 498.132,144 c -0.155,11.826 -2.92,22.27 -8.295,31.334 -5.378,9.062 -12.596,16.089 -21.657,21.082 -9.065,4.99 -19.124,7.488 -30.183,7.488 -11.675,0 -22.158,-2.65 -31.449,-7.949 -9.296,-5.299 -16.589,-12.711 -21.888,-22.233 -5.3,-9.526 -7.949,-20.2 -7.949,-32.026 0,-11.981 2.725,-22.734 8.179,-32.256 5.45,-9.526 13.169,-16.934 23.155,-22.234 9.983,-5.299 21.427,-7.948 34.33,-7.948 10.137,0 19.314,1.688 27.533,5.068 8.215,3.377 15.012,8.295 20.39,14.746 l -11.981,14.285 c -8.91,-9.832 -20.66,-14.746 -35.251,-14.746 m -5.069,86.631 c 9.677,0 17.971,-2.765 24.883,-8.295 6.912,-5.529 11.366,-12.751 13.364,-21.657 l -78.106,-14.746 0,2.304 c 0,8.446 1.688,15.858 5.069,22.234 3.377,6.372 8.1,11.325 14.169,14.86 6.066,3.532 12.939,5.3 20.621,5.3 m 243.763,18.662 c -10.292,0 -19.548,-1.998 -27.763,-5.99 -8.219,-3.996 -14.63,-9.526 -19.238,-16.589 -3.996,7.373 -9.677,12.978 -17.05,16.819 -7.373,3.838 -15.822,5.76 -25.344,5.76 -9.216,0 -17.435,-1.652 -24.653,-4.954 -7.221,-3.304 -13.057,-8.103 -17.51,-14.4 l 0,18.202 -21.197,0 0,-122.112 22.118,0 0,62.899 c 0,13.054 3.302,23.076 9.908,30.067 6.602,6.988 15.512,10.484 26.726,10.484 10.138,0 17.932,-2.996 23.386,-8.986 5.45,-5.99 8.179,-14.9 8.179,-26.726 l 0,-67.738 22.118,0 0,62.899 c 0,13.054 3.302,23.076 9.907,30.067 6.603,6.988 15.513,10.484 26.727,10.484 10.138,0 17.932,-2.996 23.385,-8.986 5.451,-5.99 8.18,-14.9 8.18,-26.726 l 0,-67.738 22.118,0 0,70.272 c 0,17.51 -4.493,30.719 -13.478,39.629 -8.986,8.906 -21.161,13.363 -36.519,13.363"
               style="fill:#231f20;fill-opacity:1;fill-rule:nonzero;stroke:none"
               id="path4156" />
          </g>
        </g>
      </g>
    </g>
  </g>
</svg>
